<svg xmlns="http://www.w3.org/2000/svg" width="264.048" height="205.371" viewBox="0 0 264.048 205.371"><defs><style>.a{fill:#ffde59;}.b{fill:#6e6868;}</style></defs><g transform="translate(0 -32)"><path class="a" d="M95.351,178.693a116.645,116.645,0,0,1-51.022-11.46c-9.993,5.822-23.883,11.46-40.662,11.46a3.589,3.589,0,0,1-3.346-2.2,3.667,3.667,0,0,1,.688-3.988A103.18,103.18,0,0,0,17.42,147.521C6.464,135.556,0,121.07,0,105.347,0,64.823,42.679,32,95.351,32S190.7,64.823,190.7,105.347,148.023,178.693,95.351,178.693Z"/><path class="b" d="M359.529,239.791c0,15.724-6.464,30.255-17.42,42.174a102.084,102.084,0,0,0,16.411,24.984,3.667,3.667,0,0,1,.688,3.988,3.612,3.612,0,0,1-3.346,2.2c-16.778,0-30.668-5.639-40.662-11.46a116.007,116.007,0,0,1-51.022,11.46c-39.516,0-73.438-18.52-87.878-44.879a137.459,137.459,0,0,0,14.532.871c60.648,0,110.02-39.47,110.02-88.016a68.133,68.133,0,0,0-.6-9.214C335,182.856,359.529,209.123,359.529,239.791Z" transform="translate(-95.481 -75.768)"/></g></svg>