<svg xmlns="http://www.w3.org/2000/svg" width="201.5" height="201.5" viewBox="0 0 201.5 201.5"><defs><style>.a{fill:none;}.b{fill:#ffde59;}</style></defs><path class="a" d="M0,0H201.5V201.5H0Z"/><path class="b" d="M153.125,2H18.792A16.769,16.769,0,0,0,2.084,18.792L2,169.917l33.583-33.583H153.125a16.841,16.841,0,0,0,16.792-16.792V18.792A16.841,16.841,0,0,0,153.125,2ZM52.375,102.75H35.583V85.958H52.375Zm0-25.188H35.583V60.771H52.375Zm0-25.187H35.583V35.583H52.375Zm58.771,50.375H69.167V85.958h41.979Zm25.188-25.188H69.167V60.771h67.167Zm0-25.187H69.167V35.583h67.167Z" transform="translate(14.792 14.792)"/></svg>