<svg xmlns="http://www.w3.org/2000/svg" width="243.126" height="194.5" viewBox="0 0 243.126 194.5"><defs><style>.a{fill:#ffde59;}</style></defs><path class="a" d="M79.015,133.719a8.691,8.691,0,0,0-2.682.414,50.112,50.112,0,0,1-15.552,2.625,50.155,50.155,0,0,1-15.556-2.625,8.667,8.667,0,0,0-2.678-.414A42.55,42.55,0,0,0,0,176.5a18.188,18.188,0,0,0,18.234,18h85.094a18.188,18.188,0,0,0,18.234-18A42.55,42.55,0,0,0,79.015,133.719ZM60.78,121.563A36.469,36.469,0,1,0,24.311,85.094,36.468,36.468,0,0,0,60.78,121.563ZM224.89,0H79.015C68.959,0,60.78,8.452,60.78,18.838v17.63a48.073,48.073,0,0,1,24.312,6.762V24.313H218.811V133.719H194.5V109.406H145.874v24.313H116.912a48.417,48.417,0,0,1,15.078,24.313h92.9c10.055,0,18.234-8.452,18.234-18.838V18.838C243.124,8.452,234.945,0,224.89,0Z" transform="translate(0.002)"/></svg>