<svg xmlns="http://www.w3.org/2000/svg" width="191.145" height="196.686" viewBox="0 0 191.145 196.686"><defs><style>.a,.d{fill:none;}.a{stroke:#ffde59;stroke-width:2px;}.b,.c{fill:#6e6868;font-family:Oswald-Regular, Oswald;}.b{font-size:16px;}.c{font-size:12px;}.d{stroke:#707070;}</style></defs><g transform="translate(-1292.613 -4599.065)"><g transform="translate(1294 4600.533)"><path class="a" d="M507.814,10.2,414.761,111.457l93.052,92.558L585.7,128.37l17.414-16.913Z" transform="translate(-414.761 -10.2)"/><path class="a" d="M424.612,56.685l35.027-36H540.7l33.914,36v92.879L540.7,178.322H459.639l-35.027-28.758Z" transform="translate(-405.761 -2.963)"/></g><text class="b" transform="translate(1364 4639)"><tspan x="12.952" y="19">THE </tspan><tspan x="6.152" y="43">TABLE</tspan></text><text class="c" transform="translate(1346 4714)"><tspan x="0.108" y="14">CONVERSATIONS &amp; </tspan><tspan x="14.478" y="38">COMMUNITY</tspan></text><path class="d" d="M1360,4692l8,8,8-8,8,8,8-8,8,8,8-8,8,8" transform="translate(0 4)"/></g></svg>