<svg xmlns="http://www.w3.org/2000/svg" width="207.941" height="207.836" viewBox="0 0 207.941 207.836"><defs><style>.a{fill:#ffde59;}.a,.b{stroke:#707070;stroke-width:3px;}.b{fill:none;}</style></defs><g transform="translate(1.5 -6.5)"><path class="a" d="M202.172,133.714A102.429,102.429,0,1,1,23.126,45.581V64.458A20.649,20.649,0,0,0,26.657,76c4.84,7.182,11.72,17.374,14.731,21.793a47.406,47.406,0,0,0,7.458,8.565l.33.3a59.576,59.576,0,0,0,13.071,8.982c5.782,2.911,14.223,7.5,20.157,10.783a13.174,13.174,0,0,1,6.8,11.563V151.2a13.216,13.216,0,0,0,3.871,9.347c6.193,6.193,10.042,15.952,9.344,21.163v12.005a8.672,8.672,0,0,0,9.7,8.611c.723-.087,1.441-.182,2.16-.289a8.635,8.635,0,0,0,7.091-6.508l5.827-23.8c.826-2.267,1.346-4.629,1.97-6.967a9.87,9.87,0,0,1,2.573-4.423c1.371-1.375,3.06-3.056,4.671-4.658a19.187,19.187,0,0,0,5.666-13.628,12.591,12.591,0,0,0-3.688-8.92l-5.662-5.645a13.215,13.215,0,0,0-9.346-3.853H95.81c-3.886-1.945-8.871-13.215-13.215-13.215a27.968,27.968,0,0,1-12.519-2.958L65.5,105.173a4.956,4.956,0,0,1,.644-9.085L79.019,91.8a6.608,6.608,0,0,1,6.426,1.276L89.277,96.4a3.3,3.3,0,0,0,2.164.826H93.77a3.3,3.3,0,0,0,2.953-4.782L90.284,79.564a3.3,3.3,0,0,1,.652-3.837l4.1-3.985a3.3,3.3,0,0,1,2.3-.97h3.717a3.3,3.3,0,0,0,2.337-.966l3.3-3.3a3.3,3.3,0,0,0,0-4.671l-1.937-1.937a3.3,3.3,0,0,1,0-4.671l4.266-4.274,1.937-1.933a6.608,6.608,0,0,0,0-9.346h0L100.886,29.594A5.113,5.113,0,0,0,96.942,28.1c-1.045.07-2.086.157-3.13.268A5.125,5.125,0,0,0,89.2,33.464,6.752,6.752,0,0,1,84.416,40a6.608,6.608,0,0,1-4.778-.442,27.293,27.293,0,0,1-6.608-4.642L56.272,18.96A102.5,102.5,0,0,1,197.266,71.71l-15.078,1.3a31.477,31.477,0,0,0-11.349,3.2,9.932,9.932,0,0,0-3.816,3.366l-8.09,12.133a9.912,9.912,0,0,0,0,10.993l7.434,11.15a9.911,9.911,0,0,0,4.353,3.626l8.474,4.171Z" transform="translate(0 0)"/><path class="b" d="M165.6,143.078a13.215,13.215,0,0,0-9.346-3.865h-27.57C124.8,137.268,119.813,126,115.468,126a27.968,27.968,0,0,1-12.519-2.958l-4.574-2.287a4.956,4.956,0,0,1,.644-9.085l12.872-4.291a6.608,6.608,0,0,1,6.426,1.276l3.832,3.329a3.3,3.3,0,0,0,2.164.826h2.329a3.3,3.3,0,0,0,2.953-4.782l-6.438-12.881a3.3,3.3,0,0,1,.652-3.837l4.1-3.985a3.3,3.3,0,0,1,2.3-.97h3.717a3.3,3.3,0,0,0,2.337-.966l3.3-3.3a3.3,3.3,0,0,0,0-4.671l-1.937-1.937a3.3,3.3,0,0,1,0-4.671l4.266-4.274,1.937-1.933a6.608,6.608,0,0,0,0-9.346h0L133.759,45.174a5.113,5.113,0,0,0-3.944-1.491c-1.045.07-2.086.157-3.13.268a5.125,5.125,0,0,0-4.609,5.092,6.752,6.752,0,0,1-4.786,6.537,6.608,6.608,0,0,1-4.778-.442A27.294,27.294,0,0,1,105.9,50.5L89.145,34.54A102.831,102.831,0,0,0,56,61.16V80.037A20.649,20.649,0,0,0,59.531,91.58c4.84,7.182,11.72,17.374,14.731,21.793a47.405,47.405,0,0,0,7.458,8.565l.33.3a59.576,59.576,0,0,0,13.071,8.982c5.782,2.911,14.223,7.5,20.157,10.783a13.174,13.174,0,0,1,6.8,11.563v13.215a13.217,13.217,0,0,0,3.871,9.347c6.193,6.193,10.042,15.952,9.344,21.163v12.005a8.672,8.672,0,0,0,9.7,8.611c.723-.087,1.441-.182,2.16-.289a8.635,8.635,0,0,0,7.091-6.508l5.827-23.8c.826-2.267,1.346-4.629,1.97-6.967a9.87,9.87,0,0,1,2.573-4.423c1.371-1.375,3.06-3.056,4.671-4.658a19.187,19.187,0,0,0,5.666-13.628,12.591,12.591,0,0,0-3.688-8.92Zm64.54-55.789-15.078,1.3a31.477,31.477,0,0,0-11.349,3.2,9.932,9.932,0,0,0-3.816,3.366l-8.09,12.133a9.911,9.911,0,0,0,0,10.993l7.434,11.15a9.911,9.911,0,0,0,4.353,3.626l8.474,4.171,22.978,12.067a102.917,102.917,0,0,0-4.906-62Z" transform="translate(-32.874 -15.58)"/></g></svg>