<svg xmlns="http://www.w3.org/2000/svg" width="203.016" height="142.111" viewBox="0 0 203.016 142.111"><defs><style>.a{fill:#6e6868;}.b{fill:#ffde59;}</style></defs><g transform="translate(0 -32)"><path class="a" d="M30.452,136.6a20.3,20.3,0,1,0-20.3-20.3,20.3,20.3,0,0,0,20.3,20.3Zm152.262,10.151h-20.3a20.241,20.241,0,0,0-14.306,5.9,46.4,46.4,0,0,1,23.823,34.7h20.936a10.151,10.151,0,0,0,10.151-10.151V167.055A20.321,20.321,0,0,0,182.714,146.754Zm-162.413,0A20.321,20.321,0,0,0,0,167.055v10.151a10.151,10.151,0,0,0,10.151,10.151h20.9a46.516,46.516,0,0,1,23.854-34.7,20.241,20.241,0,0,0-14.306-5.9ZM172.563,136.6a20.3,20.3,0,1,0-20.3-20.3A20.3,20.3,0,0,0,172.563,136.6Z" transform="translate(0 -43.698)"/><path class="b" d="M213.267,113.206h-2.633a49.051,49.051,0,0,1-43.458,0h-2.633A36.552,36.552,0,0,0,128,149.749v9.136a15.226,15.226,0,0,0,15.226,15.226h91.357a15.226,15.226,0,0,0,15.226-15.226v-9.136a36.552,36.552,0,0,0-36.543-36.543ZM188.9,103.055a35.509,35.509,0,1,0-25.127-10.4,35.528,35.528,0,0,0,25.127,10.4Z" transform="translate(-87.397)"/></g></svg>