<svg xmlns="http://www.w3.org/2000/svg" width="221" height="154.731" viewBox="0 0 221 154.731"><defs><style>.a{fill:#6e6868;}.b{fill:#ffde59;}</style></defs><g transform="translate(-0.15 -32.013)"><path class="a" d="M219.526,82.4,207.714,94.144a5.626,5.626,0,0,1-7.737.138C149.55,48.1,71.733,48.1,21.34,94.283a5.592,5.592,0,0,1-7.737-.138L1.79,82.4l-.173-.173a5.478,5.478,0,0,1,.311-7.771c61.1-56.575,156.256-56.61,217.46,0,.069.069.138.1.173.173a5.5,5.5,0,0,1-.035,7.771Z" transform="translate(0 0)"/><path class="b" d="M183.9,247.271a22.105,22.105,0,1,0,22.105,22.105A22.126,22.126,0,0,0,183.9,247.271Zm70.288-28.6-.276-.276a106.036,106.036,0,0,0-139.988,0,5.5,5.5,0,0,0-.484,7.7,2.083,2.083,0,0,0,.276.276L125.6,238.118a5.63,5.63,0,0,0,7.6.276,77.788,77.788,0,0,1,101.373,0,5.594,5.594,0,0,0,7.6-.276l11.882-11.743A5.39,5.39,0,0,0,254.191,218.673Z" transform="translate(-73.28 -104.737)"/></g></svg>